<mxfile host="Electron" modified="2024-03-12T16:27:28.146Z" agent="Mozilla/5.0 (X11; Linux x86_64) AppleWebKit/537.36 (KHTML, like Gecko) draw.io/24.0.4 Chrome/120.0.6099.109 Electron/28.1.0 Safari/537.36" etag="pnoTYOWFa7R_7c1IuJA5" version="24.0.4" type="device">
  <diagram name="Page-1" id="tF2cg8YZNDlHc3k4oiim">
    <mxGraphModel dx="1434" dy="854" grid="1" gridSize="10" guides="1" tooltips="1" connect="1" arrows="1" fold="1" page="1" pageScale="1" pageWidth="850" pageHeight="1100" math="0" shadow="0">
      <root>
        <mxCell id="0" />
        <mxCell id="1" parent="0" />
        <mxCell id="kB0HZrW1ILYaMatw4sHI-1" value="&lt;font style=&quot;font-size: 20px;&quot;&gt;&lt;b&gt;Others&lt;/b&gt;&lt;/font&gt;" style="text;html=1;align=center;verticalAlign=middle;whiteSpace=wrap;rounded=1;fillColor=#f5f5f5;fontColor=#333333;strokeColor=#666666;" vertex="1" parent="1">
          <mxGeometry x="220" y="290" width="330" height="40" as="geometry" />
        </mxCell>
        <mxCell id="kB0HZrW1ILYaMatw4sHI-2" value="&lt;ul style=&quot;orphans: 2; text-indent: 0px; widows: 2; text-decoration-thickness: initial; text-decoration-style: initial; text-decoration-color: initial; background-color: rgb(251, 251, 251); font-size: 16px;&quot;&gt;&lt;li dir=&quot;ltr&quot; style=&quot;list-style-type: disc; font-family: Arial, sans-serif; background-color: transparent; font-variant-numeric: normal; font-variant-east-asian: normal; font-variant-alternates: normal; font-variant-position: normal; vertical-align: baseline; white-space-collapse: preserve;&quot; aria-level=&quot;1&quot;&gt;&lt;p dir=&quot;ltr&quot; style=&quot;text-align: left; line-height: 1.38; margin-top: 12pt; margin-bottom: 0pt;&quot; role=&quot;presentation&quot;&gt;&lt;b&gt;RFC 9250&lt;/b&gt; - DNS over Dedicated QUIC Connections (2022)&lt;/p&gt;&lt;/li&gt;&lt;li dir=&quot;ltr&quot; style=&quot;list-style-type: disc; font-family: Arial, sans-serif; background-color: transparent; font-variant-numeric: normal; font-variant-east-asian: normal; font-variant-alternates: normal; font-variant-position: normal; vertical-align: baseline; white-space-collapse: preserve;&quot; aria-level=&quot;1&quot;&gt;&lt;p dir=&quot;ltr&quot; style=&quot;text-align: left; line-height: 1.38; margin-top: 12pt; margin-bottom: 0pt;&quot; role=&quot;presentation&quot;&gt;MASQUE - Multiplexed Application Substrate over QUIC Encryption&lt;/p&gt;&lt;/li&gt;&lt;li dir=&quot;ltr&quot; style=&quot;list-style-type: disc; font-family: Arial, sans-serif; background-color: transparent; font-variant-numeric: normal; font-variant-east-asian: normal; font-variant-alternates: normal; font-variant-position: normal; vertical-align: baseline; white-space-collapse: preserve;&quot; aria-level=&quot;1&quot;&gt;&lt;p dir=&quot;ltr&quot; style=&quot;text-align: left; line-height: 1.38; margin-top: 12pt; margin-bottom: 0pt;&quot; role=&quot;presentation&quot;&gt;MOQ - Media Over QUIC (for streaming, gaming, and media conferencing...)&lt;/p&gt;&lt;/li&gt;&lt;li dir=&quot;ltr&quot; style=&quot;list-style-type: disc; font-family: Arial, sans-serif; background-color: transparent; font-variant-numeric: normal; font-variant-east-asian: normal; font-variant-alternates: normal; font-variant-position: normal; vertical-align: baseline; white-space-collapse: preserve;&quot; aria-level=&quot;1&quot;&gt;&lt;p dir=&quot;ltr&quot; style=&quot;text-align: left; line-height: 1.38; margin-top: 12pt; margin-bottom: 0pt;&quot; role=&quot;presentation&quot;&gt;Depuis Windows Server 2022: SMB over QUIC&lt;/p&gt;&lt;/li&gt;&lt;div style=&quot;text-align: left;&quot;&gt;&lt;br&gt;&lt;/div&gt;&lt;div style=&quot;text-align: left;&quot;&gt;&lt;br&gt;&lt;/div&gt;&lt;h2 id=&quot;applicability-and-manageability&quot; style=&quot;color: rgb(0, 0, 0); font-family: Helvetica; font-size: 15px; font-style: normal; font-variant-ligatures: normal; font-variant-caps: normal; letter-spacing: normal; text-transform: none; word-spacing: 0px; -webkit-text-stroke-width: 0px; white-space: normal; font-weight: 400;&quot;&gt;&lt;/h2&gt;&lt;/ul&gt;" style="text;html=1;align=center;verticalAlign=middle;whiteSpace=wrap;rounded=0;" vertex="1" parent="1">
          <mxGeometry x="220" y="370" width="330" height="230" as="geometry" />
        </mxCell>
      </root>
    </mxGraphModel>
  </diagram>
</mxfile>
